<svg width="22" height="22" viewBox="0 0 22 22" fill="none" xmlns="http://www.w3.org/2000/svg">
<path opacity="0.5" d="M20 3.81934C20.0001 3.33694 19.8079 2.87435 19.4668 2.5332C19.1259 2.19221 18.6638 2.00019 18.1817 2C17.6995 1.99994 17.2366 2.19145 16.8955 2.53223L3.54787 15.8828C3.43189 15.9985 3.34589 16.1412 3.29787 16.2979L2.24904 19.749L5.70607 18.7012L5.82033 18.6592C5.932 18.6097 6.0341 18.5399 6.12111 18.4531L19.4668 5.10547L19.5879 4.97168C19.853 4.64813 19.9999 4.2413 20 3.81934ZM22 3.81934C21.9999 4.76894 21.6462 5.68233 21.0117 6.38281L20.8809 6.51953L7.53322 19.8691C7.18551 20.2157 6.75781 20.4724 6.2881 20.6152L1.93458 21.9355L1.93165 21.9365C1.67254 22.0144 1.39717 22.02 1.13478 21.9541C0.872331 21.8881 0.632017 21.7527 0.440444 21.5615C0.248815 21.3702 0.112355 21.1297 0.0459126 20.8672C-0.0204004 20.6049 -0.0148914 20.3295 0.0625142 20.0703L0.0644673 20.0664L1.38478 15.7139L1.38576 15.7109C1.52994 15.2408 1.78754 14.813 2.13576 14.4658L15.4805 1.11816C16.1968 0.402075 17.1688 -0.000126987 18.1817 3.00755e-08C19.1944 0.000187143 20.1658 0.402925 20.8818 1.11914C21.5978 1.83538 22.0001 2.80663 22 3.81934Z" fill="#1A1A1A"/>
</svg>
